<?xml version="1.0" encoding="UTF-8" standalone="no"?>
<!DOCTYPE svg PUBLIC "-//W3C//DTD SVG 1.1//EN"
 "http://www.w3.org/Graphics/SVG/1.1/DTD/svg11.dtd">
<!-- Generated by graphviz version 2.43.0 (0)
 -->
<!-- Title: %3 Pages: 1 -->
<svg width="1074pt" height="445pt"
 viewBox="0.00 0.00 1073.76 445.22" xmlns="http://www.w3.org/2000/svg" xmlns:xlink="http://www.w3.org/1999/xlink">
<g id="graph0" class="graph" transform="scale(1 1) rotate(0) translate(4 441.22)">
<title>%3</title>
<polygon fill="white" stroke="transparent" points="-4,4 -4,-441.22 1069.76,-441.22 1069.76,4 -4,4"/>
<!-- 136389789758080 -->
<g id="node1" class="node">
<title>136389789758080</title>
<ellipse fill="none" stroke="black" cx="455.88" cy="-419.22" rx="69.59" ry="18"/>
<text text-anchor="middle" x="455.88" y="-415.52" font-family="Times,serif" font-size="14.00">X_0 &lt;= 5.00</text>
</g>
<!-- 136389789757120 -->
<g id="node2" class="node">
<title>136389789757120</title>
<ellipse fill="none" stroke="black" cx="377.88" cy="-332.22" rx="69.59" ry="18"/>
<text text-anchor="middle" x="377.88" y="-328.52" font-family="Times,serif" font-size="14.00">X_0 &lt;= 3.00</text>
</g>
<!-- 136389789758080&#45;&gt;136389789757120 -->
<g id="edge17" class="edge">
<title>136389789758080&#45;&gt;136389789757120</title>
<path fill="none" stroke="black" d="M440.47,-401.43C428.93,-388.85 412.98,-371.47 400.07,-357.4"/>
<polygon fill="black" stroke="black" points="402.6,-354.98 393.26,-349.98 397.44,-359.71 402.6,-354.98"/>
<text text-anchor="middle" x="438.88" y="-372.02" font-family="Times,serif" font-size="14.00">True</text>
</g>
<!-- 136389789757984 -->
<g id="node11" class="node">
<title>136389789757984</title>
<ellipse fill="none" stroke="black" cx="534.88" cy="-332.22" rx="69.59" ry="18"/>
<text text-anchor="middle" x="534.88" y="-328.52" font-family="Times,serif" font-size="14.00">X_0 &lt;= 6.00</text>
</g>
<!-- 136389789758080&#45;&gt;136389789757984 -->
<g id="edge18" class="edge">
<title>136389789758080&#45;&gt;136389789757984</title>
<path fill="none" stroke="black" d="M471.49,-401.43C483.18,-388.85 499.33,-371.47 512.41,-357.4"/>
<polygon fill="black" stroke="black" points="515.06,-359.69 519.31,-349.98 509.94,-354.92 515.06,-359.69"/>
<text text-anchor="middle" x="519.88" y="-372.02" font-family="Times,serif" font-size="14.00">False</text>
</g>
<!-- 136389789756736 -->
<g id="node3" class="node">
<title>136389789756736</title>
<ellipse fill="none" stroke="black" cx="221.88" cy="-236.35" rx="69.59" ry="18"/>
<text text-anchor="middle" x="221.88" y="-232.65" font-family="Times,serif" font-size="14.00">X_0 &lt;= 1.00</text>
</g>
<!-- 136389789757120&#45;&gt;136389789756736 -->
<g id="edge7" class="edge">
<title>136389789757120&#45;&gt;136389789756736</title>
<path fill="none" stroke="black" d="M351.77,-315.51C325.79,-299.87 285.74,-275.78 256.99,-258.47"/>
<polygon fill="black" stroke="black" points="258.45,-255.27 248.08,-253.11 254.84,-261.27 258.45,-255.27"/>
<text text-anchor="middle" x="335.88" y="-285.02" font-family="Times,serif" font-size="14.00">True</text>
</g>
<!-- 136389789756928 -->
<g id="node8" class="node">
<title>136389789756928</title>
<ellipse fill="none" stroke="black" cx="378.88" cy="-236.35" rx="69.59" ry="18"/>
<text text-anchor="middle" x="378.88" y="-232.65" font-family="Times,serif" font-size="14.00">X_0 &lt;= 4.00</text>
</g>
<!-- 136389789757120&#45;&gt;136389789756928 -->
<g id="edge8" class="edge">
<title>136389789757120&#45;&gt;136389789756928</title>
<path fill="none" stroke="black" d="M378.07,-314C378.21,-300.24 378.42,-280.69 378.59,-264.78"/>
<polygon fill="black" stroke="black" points="382.09,-264.5 378.7,-254.46 375.09,-264.42 382.09,-264.5"/>
<text text-anchor="middle" x="397.88" y="-285.02" font-family="Times,serif" font-size="14.00">False</text>
</g>
<!-- 136389789755728 -->
<g id="node4" class="node">
<title>136389789755728</title>
<ellipse fill="none" stroke="black" cx="67.88" cy="-131.61" rx="67.76" ry="26.74"/>
<text text-anchor="middle" x="67.88" y="-135.41" font-family="Times,serif" font-size="14.00">Leaf</text>
<text text-anchor="middle" x="67.88" y="-120.41" font-family="Times,serif" font-size="14.00">Value: 4.50</text>
</g>
<!-- 136389789756736&#45;&gt;136389789755728 -->
<g id="edge3" class="edge">
<title>136389789756736&#45;&gt;136389789755728</title>
<path fill="none" stroke="black" d="M197.82,-219.3C174.36,-203.65 138.2,-179.52 109.97,-160.69"/>
<polygon fill="black" stroke="black" points="111.75,-157.67 101.49,-155.03 107.86,-163.49 111.75,-157.67"/>
<text text-anchor="middle" x="171.88" y="-180.28" font-family="Times,serif" font-size="14.00">True</text>
</g>
<!-- 136389789756544 -->
<g id="node5" class="node">
<title>136389789756544</title>
<ellipse fill="none" stroke="black" cx="222.88" cy="-131.61" rx="69.59" ry="18"/>
<text text-anchor="middle" x="222.88" y="-127.91" font-family="Times,serif" font-size="14.00">X_0 &lt;= 2.00</text>
</g>
<!-- 136389789756736&#45;&gt;136389789756544 -->
<g id="edge4" class="edge">
<title>136389789756736&#45;&gt;136389789756544</title>
<path fill="none" stroke="black" d="M222.05,-217.92C222.21,-202.03 222.44,-178.3 222.62,-159.9"/>
<polygon fill="black" stroke="black" points="226.12,-159.81 222.72,-149.78 219.12,-159.75 226.12,-159.81"/>
<text text-anchor="middle" x="241.88" y="-180.28" font-family="Times,serif" font-size="14.00">False</text>
</g>
<!-- 136389789756256 -->
<g id="node6" class="node">
<title>136389789756256</title>
<ellipse fill="none" stroke="black" cx="145.88" cy="-26.87" rx="67.76" ry="26.74"/>
<text text-anchor="middle" x="145.88" y="-30.67" font-family="Times,serif" font-size="14.00">Leaf</text>
<text text-anchor="middle" x="145.88" y="-15.67" font-family="Times,serif" font-size="14.00">Value: 4.75</text>
</g>
<!-- 136389789756544&#45;&gt;136389789756256 -->
<g id="edge1" class="edge">
<title>136389789756544&#45;&gt;136389789756256</title>
<path fill="none" stroke="black" d="M210.17,-113.64C199.52,-99.44 184.01,-78.74 170.89,-61.24"/>
<polygon fill="black" stroke="black" points="173.47,-58.84 164.67,-52.94 167.87,-63.04 173.47,-58.84"/>
<text text-anchor="middle" x="206.88" y="-75.54" font-family="Times,serif" font-size="14.00">True</text>
</g>
<!-- 136389789756688 -->
<g id="node7" class="node">
<title>136389789756688</title>
<ellipse fill="none" stroke="black" cx="299.88" cy="-26.87" rx="67.76" ry="26.74"/>
<text text-anchor="middle" x="299.88" y="-30.67" font-family="Times,serif" font-size="14.00">Leaf</text>
<text text-anchor="middle" x="299.88" y="-15.67" font-family="Times,serif" font-size="14.00">Value: 4.91</text>
</g>
<!-- 136389789756544&#45;&gt;136389789756688 -->
<g id="edge2" class="edge">
<title>136389789756544&#45;&gt;136389789756688</title>
<path fill="none" stroke="black" d="M235.6,-113.64C246.24,-99.44 261.76,-78.74 274.88,-61.24"/>
<polygon fill="black" stroke="black" points="277.9,-63.04 281.09,-52.94 272.29,-58.84 277.9,-63.04"/>
<text text-anchor="middle" x="285.88" y="-75.54" font-family="Times,serif" font-size="14.00">False</text>
</g>
<!-- 136389789756880 -->
<g id="node9" class="node">
<title>136389789756880</title>
<ellipse fill="none" stroke="black" cx="377.88" cy="-131.61" rx="67.76" ry="26.74"/>
<text text-anchor="middle" x="377.88" y="-135.41" font-family="Times,serif" font-size="14.00">Leaf</text>
<text text-anchor="middle" x="377.88" y="-120.41" font-family="Times,serif" font-size="14.00">Value: 5.34</text>
</g>
<!-- 136389789756928&#45;&gt;136389789756880 -->
<g id="edge5" class="edge">
<title>136389789756928&#45;&gt;136389789756880</title>
<path fill="none" stroke="black" d="M378.71,-217.92C378.58,-204.46 378.4,-185.36 378.23,-168.65"/>
<polygon fill="black" stroke="black" points="381.73,-168.59 378.14,-158.62 374.73,-168.66 381.73,-168.59"/>
<text text-anchor="middle" x="395.88" y="-180.28" font-family="Times,serif" font-size="14.00">True</text>
</g>
<!-- 136389789757072 -->
<g id="node10" class="node">
<title>136389789757072</title>
<ellipse fill="none" stroke="black" cx="531.88" cy="-131.61" rx="67.76" ry="26.74"/>
<text text-anchor="middle" x="531.88" y="-135.41" font-family="Times,serif" font-size="14.00">Leaf</text>
<text text-anchor="middle" x="531.88" y="-120.41" font-family="Times,serif" font-size="14.00">Value: 5.80</text>
</g>
<!-- 136389789756928&#45;&gt;136389789757072 -->
<g id="edge6" class="edge">
<title>136389789756928&#45;&gt;136389789757072</title>
<path fill="none" stroke="black" d="M402.79,-219.3C426.1,-203.65 462.03,-179.52 490.07,-160.69"/>
<polygon fill="black" stroke="black" points="492.14,-163.51 498.49,-155.03 488.24,-157.7 492.14,-163.51"/>
<text text-anchor="middle" x="483.88" y="-180.28" font-family="Times,serif" font-size="14.00">False</text>
</g>
<!-- 136389789757264 -->
<g id="node12" class="node">
<title>136389789757264</title>
<ellipse fill="none" stroke="black" cx="534.88" cy="-236.35" rx="67.76" ry="26.74"/>
<text text-anchor="middle" x="534.88" y="-240.15" font-family="Times,serif" font-size="14.00">Leaf</text>
<text text-anchor="middle" x="534.88" y="-225.15" font-family="Times,serif" font-size="14.00">Value: 7.05</text>
</g>
<!-- 136389789757984&#45;&gt;136389789757264 -->
<g id="edge15" class="edge">
<title>136389789757984&#45;&gt;136389789757264</title>
<path fill="none" stroke="black" d="M534.88,-314C534.88,-302.7 534.88,-287.49 534.88,-273.6"/>
<polygon fill="black" stroke="black" points="538.38,-273.32 534.88,-263.32 531.38,-273.32 538.38,-273.32"/>
<text text-anchor="middle" x="551.88" y="-285.02" font-family="Times,serif" font-size="14.00">True</text>
</g>
<!-- 136389789757888 -->
<g id="node13" class="node">
<title>136389789757888</title>
<ellipse fill="none" stroke="black" cx="689.88" cy="-236.35" rx="69.59" ry="18"/>
<text text-anchor="middle" x="689.88" y="-232.65" font-family="Times,serif" font-size="14.00">X_0 &lt;= 8.00</text>
</g>
<!-- 136389789757984&#45;&gt;136389789757888 -->
<g id="edge16" class="edge">
<title>136389789757984&#45;&gt;136389789757888</title>
<path fill="none" stroke="black" d="M560.83,-315.51C586.64,-299.87 626.43,-275.78 655,-258.47"/>
<polygon fill="black" stroke="black" points="657.11,-261.29 663.85,-253.11 653.49,-255.3 657.11,-261.29"/>
<text text-anchor="middle" x="636.88" y="-285.02" font-family="Times,serif" font-size="14.00">False</text>
</g>
<!-- 136389789757408 -->
<g id="node14" class="node">
<title>136389789757408</title>
<ellipse fill="none" stroke="black" cx="687.88" cy="-131.61" rx="69.59" ry="18"/>
<text text-anchor="middle" x="687.88" y="-127.91" font-family="Times,serif" font-size="14.00">X_0 &lt;= 7.00</text>
</g>
<!-- 136389789757888&#45;&gt;136389789757408 -->
<g id="edge13" class="edge">
<title>136389789757888&#45;&gt;136389789757408</title>
<path fill="none" stroke="black" d="M689.54,-217.92C689.23,-202.03 688.77,-178.3 688.41,-159.9"/>
<polygon fill="black" stroke="black" points="691.91,-159.71 688.22,-149.78 684.91,-159.85 691.91,-159.71"/>
<text text-anchor="middle" x="706.88" y="-180.28" font-family="Times,serif" font-size="14.00">True</text>
</g>
<!-- 136389789757696 -->
<g id="node17" class="node">
<title>136389789757696</title>
<ellipse fill="none" stroke="black" cx="844.88" cy="-131.61" rx="69.59" ry="18"/>
<text text-anchor="middle" x="844.88" y="-127.91" font-family="Times,serif" font-size="14.00">X_0 &lt;= 9.00</text>
</g>
<!-- 136389789757888&#45;&gt;136389789757696 -->
<g id="edge14" class="edge">
<title>136389789757888&#45;&gt;136389789757696</title>
<path fill="none" stroke="black" d="M714.1,-219.3C740.49,-201.81 782.85,-173.72 812.18,-154.28"/>
<polygon fill="black" stroke="black" points="814.43,-156.99 820.83,-148.55 810.56,-151.16 814.43,-156.99"/>
<text text-anchor="middle" x="795.88" y="-180.28" font-family="Times,serif" font-size="14.00">False</text>
</g>
<!-- 136389789757504 -->
<g id="node15" class="node">
<title>136389789757504</title>
<ellipse fill="none" stroke="black" cx="534.88" cy="-26.87" rx="67.76" ry="26.74"/>
<text text-anchor="middle" x="534.88" y="-30.67" font-family="Times,serif" font-size="14.00">Leaf</text>
<text text-anchor="middle" x="534.88" y="-15.67" font-family="Times,serif" font-size="14.00">Value: 7.90</text>
</g>
<!-- 136389789757408&#45;&gt;136389789757504 -->
<g id="edge9" class="edge">
<title>136389789757408&#45;&gt;136389789757504</title>
<path fill="none" stroke="black" d="M663.98,-114.56C640.67,-98.91 604.74,-74.78 576.7,-55.95"/>
<polygon fill="black" stroke="black" points="578.52,-52.96 568.27,-50.29 574.62,-58.77 578.52,-52.96"/>
<text text-anchor="middle" x="637.88" y="-75.54" font-family="Times,serif" font-size="14.00">True</text>
</g>
<!-- 136389789757552 -->
<g id="node16" class="node">
<title>136389789757552</title>
<ellipse fill="none" stroke="black" cx="688.88" cy="-26.87" rx="67.76" ry="26.74"/>
<text text-anchor="middle" x="688.88" y="-30.67" font-family="Times,serif" font-size="14.00">Leaf</text>
<text text-anchor="middle" x="688.88" y="-15.67" font-family="Times,serif" font-size="14.00">Value: 8.23</text>
</g>
<!-- 136389789757408&#45;&gt;136389789757552 -->
<g id="edge10" class="edge">
<title>136389789757408&#45;&gt;136389789757552</title>
<path fill="none" stroke="black" d="M688.05,-113.18C688.18,-99.72 688.37,-80.62 688.53,-63.91"/>
<polygon fill="black" stroke="black" points="692.03,-63.92 688.63,-53.88 685.03,-63.85 692.03,-63.92"/>
<text text-anchor="middle" x="707.88" y="-75.54" font-family="Times,serif" font-size="14.00">False</text>
</g>
<!-- 136389789757648 -->
<g id="node18" class="node">
<title>136389789757648</title>
<ellipse fill="none" stroke="black" cx="843.88" cy="-26.87" rx="67.76" ry="26.74"/>
<text text-anchor="middle" x="843.88" y="-30.67" font-family="Times,serif" font-size="14.00">Leaf</text>
<text text-anchor="middle" x="843.88" y="-15.67" font-family="Times,serif" font-size="14.00">Value: 8.70</text>
</g>
<!-- 136389789757696&#45;&gt;136389789757648 -->
<g id="edge11" class="edge">
<title>136389789757696&#45;&gt;136389789757648</title>
<path fill="none" stroke="black" d="M844.71,-113.18C844.58,-99.72 844.4,-80.62 844.23,-63.91"/>
<polygon fill="black" stroke="black" points="847.73,-63.85 844.14,-53.88 840.73,-63.92 847.73,-63.85"/>
<text text-anchor="middle" x="861.88" y="-75.54" font-family="Times,serif" font-size="14.00">True</text>
</g>
<!-- 136389789757840 -->
<g id="node19" class="node">
<title>136389789757840</title>
<ellipse fill="none" stroke="black" cx="997.88" cy="-26.87" rx="67.76" ry="26.74"/>
<text text-anchor="middle" x="997.88" y="-30.67" font-family="Times,serif" font-size="14.00">Leaf</text>
<text text-anchor="middle" x="997.88" y="-15.67" font-family="Times,serif" font-size="14.00">Value: 9.00</text>
</g>
<!-- 136389789757696&#45;&gt;136389789757840 -->
<g id="edge12" class="edge">
<title>136389789757696&#45;&gt;136389789757840</title>
<path fill="none" stroke="black" d="M868.79,-114.56C892.1,-98.91 928.03,-74.78 956.07,-55.95"/>
<polygon fill="black" stroke="black" points="958.14,-58.77 964.49,-50.29 954.24,-52.96 958.14,-58.77"/>
<text text-anchor="middle" x="949.88" y="-75.54" font-family="Times,serif" font-size="14.00">False</text>
</g>
</g>
</svg>
